<mxfile host="app.diagrams.net" modified="2024-06-11T23:14:39.227Z" agent="Mozilla/5.0 (Windows NT 10.0; Win64; x64) AppleWebKit/537.36 (KHTML, like Gecko) Chrome/125.0.0.0 Safari/537.36" version="24.4.8" etag="2mET9ymzs3_BWUgOIeA9" type="github">
  <diagram name="Page-1" id="4FVN_9xxOi4hVx7s_OCP">
    <mxGraphModel>
      <root>
        <mxCell id="0" />
        <mxCell id="1" parent="0" />
      </root>
    </mxGraphModel>
  </diagram>
</mxfile>
